REM DIRINDEX 1\2,1\3,1\4,1\5
REM DIRNAME cjc004,folder01,folder02,folder03,folder04
TITLE ""
FILE "1Q_t_1550-1559.mp3" MP3
  TRACK 01 AUDIO
    TITLE "3:cjc004_5556"
    INDEX 01 00:00:00
  TRACK 02 AUDIO
    TITLE "0:"
    INDEX 01 00:01:11
  TRACK 03 AUDIO
    TITLE "4:cjc004_5557"
    INDEX 01 00:01:36
  TRACK 04 AUDIO
    TITLE "0:"
    INDEX 01 00:02:59
  TRACK 05 AUDIO
    TITLE "5:cjc004_5558"
    INDEX 01 00:03:14
  TRACK 06 AUDIO
    TITLE "0:"
    INDEX 01 00:07:35
  TRACK 07 AUDIO
    TITLE "3:cjc004_5559"
    INDEX 01 00:08:19
  TRACK 08 AUDIO
    TITLE "0:"
    INDEX 01 00:09:20
  TRACK 09 AUDIO
    TITLE "4:cjc004_5560"
    INDEX 01 00:09:45
  TRACK 10 AUDIO
    TITLE "0:"
    INDEX 01 00:10:66
  TRACK 11 AUDIO
    TITLE "5:cjc004_5561"
    INDEX 01 00:11:21
  TRACK 12 AUDIO
    TITLE "0:"
    INDEX 01 00:15:30
  TRACK 13 AUDIO
    TITLE "3:cjc004_5562"
    INDEX 01 00:16:12
  TRACK 14 AUDIO
    TITLE "0:"
    INDEX 01 00:17:25
  TRACK 15 AUDIO
    TITLE "4:cjc004_5563"
    INDEX 01 00:17:51
  TRACK 16 AUDIO
    TITLE "0:"
    INDEX 01 00:19:15
  TRACK 17 AUDIO
    TITLE "5:cjc004_5564"
    INDEX 01 00:19:38
  TRACK 18 AUDIO
    TITLE "0:"
    INDEX 01 00:24:65
  TRACK 19 AUDIO
    TITLE "3:cjc004_5565"
    INDEX 01 00:25:41
  TRACK 20 AUDIO
    TITLE "0:"
    INDEX 01 00:26:62
  TRACK 21 AUDIO
    TITLE "4:cjc004_5566"
    INDEX 01 00:27:16
  TRACK 22 AUDIO
    TITLE "0:"
    INDEX 01 00:28:43
  TRACK 23 AUDIO
    TITLE "5:cjc004_5567"
    INDEX 01 00:28:70
  TRACK 24 AUDIO
    TITLE "0:"
    INDEX 01 00:34:02
  TRACK 25 AUDIO
    TITLE "3:cjc004_5568"
    INDEX 01 00:34:55
  TRACK 26 AUDIO
    TITLE "0:"
    INDEX 01 00:35:70
  TRACK 27 AUDIO
    TITLE "4:cjc004_5569"
    INDEX 01 00:36:23
  TRACK 28 AUDIO
    TITLE "0:"
    INDEX 01 00:37:18
  TRACK 29 AUDIO
    TITLE "5:cjc004_5570"
    INDEX 01 00:37:44
  TRACK 30 AUDIO
    TITLE "0:"
    INDEX 01 00:41:44
  TRACK 31 AUDIO
    TITLE "3:cjc004_5571"
    INDEX 01 00:42:23
  TRACK 32 AUDIO
    TITLE "0:"
    INDEX 01 00:43:35
  TRACK 33 AUDIO
    TITLE "4:cjc004_5572"
    INDEX 01 00:43:66
  TRACK 34 AUDIO
    TITLE "0:"
    INDEX 01 00:45:49
  TRACK 35 AUDIO
    TITLE "5:cjc004_5573"
    INDEX 01 00:46:00
  TRACK 36 AUDIO
    TITLE "0:"
    INDEX 01 00:49:59
  TRACK 37 AUDIO
    TITLE "3:cjc004_5574"
    INDEX 01 00:50:37
  TRACK 38 AUDIO
    TITLE "0:"
    INDEX 01 00:51:50
  TRACK 39 AUDIO
    TITLE "4:cjc004_5575"
    INDEX 01 00:52:04
  TRACK 40 AUDIO
    TITLE "0:"
    INDEX 01 00:53:29
  TRACK 41 AUDIO
    TITLE "5:cjc004_5576"
    INDEX 01 00:53:51
  TRACK 42 AUDIO
    TITLE "0:"
    INDEX 01 00:57:41
  TRACK 43 AUDIO
    TITLE "3:cjc004_5577"
    INDEX 01 00:58:17
  TRACK 44 AUDIO
    TITLE "0:"
    INDEX 01 00:59:26
  TRACK 45 AUDIO
    TITLE "4:cjc004_5578"
    INDEX 01 00:59:55
  TRACK 46 AUDIO
    TITLE "0:"
    INDEX 01 01:01:23
  TRACK 47 AUDIO
    TITLE "5:cjc004_5579"
    INDEX 01 01:01:48
  TRACK 48 AUDIO
    TITLE "0:"
    INDEX 01 01:05:69
  TRACK 49 AUDIO
    TITLE "3:cjc004_5580"
    INDEX 01 01:06:51
  TRACK 50 AUDIO
    TITLE "0:"
    INDEX 01 01:07:47
  TRACK 51 AUDIO
    TITLE "4:cjc004_5581"
    INDEX 01 01:08:03
  TRACK 52 AUDIO
    TITLE "0:"
    INDEX 01 01:09:05
  TRACK 53 AUDIO
    TITLE "5:cjc004_5582"
    INDEX 01 01:09:32
  TRACK 54 AUDIO
    TITLE "0:"
    INDEX 01 01:13:53
  TRACK 55 AUDIO
    TITLE "3:cjc004_5583"
    INDEX 01 01:14:31
  TRACK 56 AUDIO
    TITLE "0:"
    INDEX 01 01:15:39
  TRACK 57 AUDIO
    TITLE "4:cjc004_5584"
    INDEX 01 01:15:62
  TRACK 58 AUDIO
    TITLE "0:"
    INDEX 01 01:17:55
  TRACK 59 AUDIO
    TITLE "5:cjc004_5585"
    INDEX 01 01:18:06
  TRACK 60 AUDIO
    TITLE "0:"
    INDEX 01 01:22:29
